<?xml version="1.0" standalone="no"?>
<!DOCTYPE svg PUBLIC "-//W3C//DTD SVG 20010904//EN"
 "http://www.w3.org/TR/2001/REC-SVG-20010904/DTD/svg10.dtd">
<svg version="1.0" xmlns="http://www.w3.org/2000/svg"
 width="50px" height="50px" viewBox="0 0 512.000000 512.000000"
 preserveAspectRatio="xMidYMid meet">

<g transform="translate(0.000000,512.000000) scale(0.100000,-0.100000)"
fill="#000000" stroke="none">
<path d="M285 5106 c-107 -34 -186 -102 -232 -201 l-28 -60 0 -2285 0 -2285
28 -60 c36 -78 104 -146 181 -182 l61 -28 1785 0 1785 0 57 27 c73 34 142 103
176 176 l27 57 3 898 2 899 470 596 c363 460 473 607 486 645 31 94 4 196 -73
268 -53 51 -416 335 -459 361 -25 14 -59 22 -107 25 -102 6 -159 -24 -247
-130 l-65 -79 -6 184 c-3 100 -6 185 -7 188 -9 22 -966 966 -994 981 -36 19
-73 19 -1420 18 -1088 0 -1392 -3 -1423 -13z m3117 -713 l408 -408 0 -327 0
-326 -637 -808 c-350 -444 -649 -826 -665 -848 -26 -39 -31 -63 -84 -433 l-57
-392 24 -48 c18 -36 35 -53 69 -70 24 -13 56 -23 71 -23 37 0 735 278 768 306
14 12 134 159 266 327 l240 306 3 -651 c1 -472 -1 -655 -9 -664 -16 -19 -3428
-21 -3447 -2 -17 17 -17 4439 0 4456 9 9 318 12 1327 12 l1316 0 407 -407z
m1198 -898 c69 -54 131 -104 139 -111 12 -11 6 -24 -40 -83 l-53 -70 -41 32
c-22 18 -91 73 -153 122 -63 49 -111 94 -108 101 3 7 26 40 52 73 41 54 49 59
63 47 9 -7 72 -57 141 -111z m-305 -394 c94 -74 144 -119 141 -128 -3 -8 -275
-355 -603 -773 l-598 -758 -35 26 c-19 15 -90 70 -157 122 l-122 97 496 629
c716 910 713 906 723 902 6 -2 75 -54 155 -117z m-1412 -1791 c53 -41 96 -78
97 -81 0 -4 -56 -29 -125 -57 -69 -28 -125 -49 -125 -47 0 11 31 223 36 243 2
13 8 22 13 20 4 -2 51 -37 104 -78z"/>
<path d="M940 3941 c-53 -28 -80 -74 -80 -136 0 -66 29 -112 90 -142 l44 -23
991 0 c638 0 1003 4 1027 10 49 14 104 76 113 129 9 53 -25 126 -74 158 l-34
23 -1021 0 c-975 0 -1023 -1 -1056 -19z"/>
<path d="M967 3226 c-72 -26 -107 -76 -107 -153 0 -57 26 -105 72 -133 32 -20
53 -20 1056 -20 1120 0 1052 -4 1105 59 71 84 23 220 -88 250 -28 8 -345 11
-1020 11 -801 -1 -987 -3 -1018 -14z"/>
<path d="M960 2499 c-61 -25 -100 -85 -100 -155 0 -59 29 -108 81 -134 37 -19
61 -20 695 -20 645 0 657 0 693 21 53 30 74 65 79 129 4 61 -17 104 -71 144
-28 21 -36 21 -690 23 -428 1 -671 -2 -687 -8z"/>
<path d="M934 1755 c-55 -33 -78 -81 -72 -152 4 -44 11 -60 39 -89 18 -19 49
-39 69 -45 22 -6 191 -9 467 -7 418 3 432 4 459 24 53 39 69 71 69 134 0 63
-16 95 -69 134 -27 20 -41 21 -474 24 l-447 2 -41 -25z"/>
</g>
</svg>
